<svg width="95" height="14" viewBox="0 0 95 14" fill="none" xmlns="http://www.w3.org/2000/svg">
<g clip-path="url(#clip0_64_10539)">
<path d="M87.986 8.313C87.986 7.295 91.486 6.955 91.486 6.955L91.436 5.937C90.926 5.923 88.934 5.996 88.934 5.461C88.934 4.764 91.982 4.593 93.05 4.556L92.831 2.927C90.99 2.932 82.718 2.954 82.38 5.2C82.197 6.412 84.579 6.698 84.579 6.698L84.578 6.755C84.578 6.755 81.46 7.333 81.46 8.848C81.46 11.936 92.216 11.071 95 10.303C95 10.303 94.73 8.931 94.608 8.867C94.497 8.81 92.239 9.144 90.447 9.096C88.99 9.057 87.986 8.824 87.986 8.313ZM65.576 1.519C65.576 2.395 64.617 3.015 62.94 3.015C61.292 3.015 60.303 2.409 60.303 1.519C60.303 0.526 61.754 0 62.939 0C64.091 0 65.576 0.513 65.576 1.519ZM80.807 8.8C80.674 8.756 79.704 8.975 78.618 8.597C76.881 7.993 76.615 5.657 78.677 4.322L76.747 2.683C73.342 3.999 72.642 4.093 72.323 4.166C72.165 3.702 71.426 2.922 69.859 3.015C69.006 3.066 67.739 3.546 67.373 4.42C67.126 5.009 67.276 5.671 67.848 6.123C68.673 6.774 70.249 6.612 70.249 6.612C69.753 8.696 65.433 10.122 65.433 7.888V4.055H60.303V8.507C60.303 10.73 63.024 11.306 65.695 11.129C69.433 10.881 71.536 8.73 72.302 6.407L74.126 5.985C74.126 5.985 71.63 9.247 74.744 10.731C76.521 11.578 79.788 10.925 81.101 10.223C81.101 10.223 80.883 8.825 80.807 8.8ZM69.088 4.777C69.121 4.221 70.5 4.078 70.584 4.721C70.584 4.721 69.051 5.377 69.088 4.777ZM59.737 9.179C59.69 9.129 58.809 9.349 58.171 9.193C57.466 9.02 57.42 8.491 57.42 7.788L57.421 4.025L52.137 4.026V7.577C52.137 7.996 52.173 9.016 50.69 9.016C50.024 9.016 49.263 8.96 49.263 7.996V4.025H44.01L44.014 8.549C44.014 11.129 48.329 11.918 52.761 10.234C52.761 10.234 54.836 11.879 60.024 10.669C60.024 10.669 59.798 9.243 59.737 9.179ZM42.488 13.236L42.486 3.957L37.679 3.958C37.679 3.958 37.841 7.305 37.589 7.955C37.159 9.369 33.695 9.168 33.695 7.52C33.697 5.603 37.223 5.933 37.223 5.933L36.87 3.953C36.87 3.953 28.716 3.192 28.326 7.564C28.238 10.611 33.65 11.881 37.652 10.381L37.65 14L42.488 13.236Z" fill="#152032"/>
<path d="M26.843 8.75502C27.327 8.26302 27.298 7.66302 26.888 7.01002C26.282 6.04702 24.609 5.48202 24.209 4.71702C24.033 4.38102 24.04 3.98202 24.301 3.49102L24.211 3.08702L18.565 3.71302C18.231 4.46802 18.572 5.05702 18.597 5.12602C14.518 9.50602 7.905 9.54602 7.729 8.00202C7.564 6.55402 12.086 6.23402 12.086 6.23402L11.997 4.79102C11.997 4.79102 8.951 5.03102 8.905 4.09102C8.858 3.12202 11.708 2.80802 13.359 2.78902L12.938 0.461024C7.589 0.403024 2.589 1.58502 2.13 3.61102C1.992 4.21902 2.397 5.28902 4.603 5.73502V5.81302C4.603 5.81302 -0.0309977 6.54602 2.25651e-06 8.56302C0.0280023 10.358 4.026 11.155 6.849 11.175C12.569 11.215 15.584 9.31302 15.584 9.31302C14.785 11.507 21.048 11.772 25.396 10.197C25.603 10.123 27.274 10.836 28.289 11.286C28.289 11.286 28.938 9.72702 28.851 9.51402C28.772 9.32102 26.843 8.75502 26.843 8.75502ZM21.255 9.33802C20.692 10.034 18.488 10.027 18.643 9.57202C18.809 9.08202 20.996 9.20502 21.255 9.33802ZM17.013 8.59302C17.013 8.59302 18.338 7.75202 19.701 6.55402C19.701 6.55402 20.874 7.24102 21.411 8.05902C21.411 8.05902 19.54 7.70202 17.013 8.59302Z" fill="#152032"/>
</g>
<defs>
<clipPath id="clip0_64_10539">
<rect width="95" height="14" fill="white"/>
</clipPath>
</defs>
</svg>
